P1
80 80
1111111111110100000000000000000000000000000000000000000000000000000101
1111111111
1111111110000000000000000000000000000000000000000000000000000000000000
0111111111
1111111000000000000000000000000000000000000000000000000000000000000000
0001111111
1111100000000000000000000000000000000000000000000000000000000000000000
0000111111
1111000000000000000000000000000000000000000000000000000000000000000000
0000011111
1110000000000000000000000000000000000000000000000000000000000000000000
0000001111
1110000000000000000000000000000000000000000000000000000000000000000000
0000000111
1100000000000000000000100000000000000000000000000000000000000000000000
0000000111
1100000000000000000011111100000000000000000000000000000000000000000000
0000000011
1000000000000000001111111111111101000000000000000000000000000000000000
0000000011
1000000000000000111111111111111111111111100000000000000000000000000000
0000000001
1000000000000000111111111111111111111111110000000000000000000000000000
0000000001
1000000000000000011111111111111111111111110000000000000000000000000000
0000000001
0000000000000000011111111111111111111111111000000000000000000000000000
0000000001
1000000000000000011111111111111111111111111100000000000000000000000000
0000000001
0000000000000000011111111111111111111111111110000000000000000000000000
0000000001
0000000000000000011110111111111111111111111111000000000000000000000000
0000000001
0000000000000000011110000111111111111111111111000000000000000000000000
0000000001
1000000000000000001100000011111111111111111111100000000000000000000000
0000000001
0000000000000000001100000001111111111111111111110000000000000000000000
0000000001
1000000000000000001100000000011111111111111111111000000000000000000000
0000000001
0000000000000000001000000000011111111111111111111100000000000000000000
0000000001
0000000000000000000000000000001111111111111111111100000000000000000000
0000000001
0000000000000000000000000000000111111111111111111110000000000000000000
0000000001
1000000000000000000000000000000111111111111111111111000000000000000000
0000000001
0000000000000000000000000000000011111111111111111111100000000000000000
0000000001
1000000000000000000000000000000001111111111111111111110000000000000000
0000000001
0000000000000000000000000000000000111111111111111111110000000000000000
0000000001
0000000000000000000000000000000000111111111111111111111000000000000000
0000000001
0000000000000000000000000000000000011111111111111111111100000000000000
0000000001
1000000000000000000000000000000000001111111111111111111110000000000000
0000000001
0000000000000000000000000000000000000111111111111111111110000000000000
0000000001
1000000000000000000000000000000000000000000111111111111111100000000000
0000000001
0000000000000000000000000000000000000000000011111111111111100000000000
0000000001
0000000000000000000000000000000000000000000011111111111111110000000000
0000000001
0000000000000000000000000000000000000000000001111111111111111000000000
0000000001
1000000000000000000000000000000000000000000001111111111111111100000000
0000000001
0000000000000000000000000000000000000000000001111111111111111100000000
0000000001
0000000000000000000000000000000000000000000001111111111101111110000000
0000000001
0000000000000000000000000000000000000000000001111111111100011111000000
0000000001
1000000000000000000000000000000000000000000000111111111110000111100000
0000000001
0000000000000000000000000000000000000000000000111111111110000011110000
0000000001
0000000000000000000000000000000000000000000000111111111110000000110000
0000000001
0000000000000000000000000000000000000000000000111111111110000000011000
0000000001
1000000000000000000000000000000000000000000000011111111110000000000100
0000000001
0000000000000000000000000000000000000000000000011111111111000000000000
0000000001
0000000000000000000000000000000000000000000000011111111111000000000000
0000000001
0000000000000000000000000000000000000000000000011111111111000000000000
0000000001
1000000000000000000000000000000000000000000000001111111111000000000000
0000000001
0000000000000000000000000000000000000000000000001111111111000000000000
0000000001
0000000000000000000000000000000000000000000000001111111111000000000000
0000000001
0000000000000000000000000000000000000000000000001111101111000000000000
0000000001
1000000000000000000000000000000000000000000000000111101111100000000000
0000000001
0000000000000000000000000000000000000000000000000111100111100000000000
0000000001
0000000000000000000000000000000000000000000000000111100111100000000000
0000000001
0000000000000000000000000000000000000000000000000111100011100000000000
0000000001
1000000000000000000000000000000000000000000000000011100001100000000000
0000000001
0000000000000000000000000000000000000000000000000011100000100000000000
0000000001
0000000000000000000000000000000000000000000000000011100000100000000000
0000000001
0000000000000000000000000000000000000000000000000011100000100000000000
0000000001
1000000000000000000000000000000000000000000000000001110000010000000000
0000000001
0000000000000000000000000000000000000000000000000001110000000000000000
0000000001
0000000000000000000000000000000000000000000000000001100000000000000000
0000000001
0000000000000000000000000000000000000000000000000001110000000000000000
0000000001
0000000000000000000000000000000000000000000000000000110000000000000000
0000000001
0000000000000000000000000000000000000000000000000000110000000000000000
0000000001
1000000000000000000000000000000000000000000000000000110000000000000000
0000000001
0000000000000000000000000000000000000000000000000000010000000000000000
0000000001
1000000000000000000000000000000000000000000000000000010000000000000000
0000000011
1000000000000000000000000000000000000000000000000000010000000000000000
0000000011
1100000000000000000000000000000000000000000000000000010000000000000000
0000000011
1100000000000000000000000000000000000000000000000000000000000000000000
0000000111
1110000000000000000000000000000000000000000000000000000000000000000000
0000001111
1110000000000000000000000000000000000000000000000000000000000000000000
0000001111
1111000000000000000000000000000000000000000000000000000000000000000000
0000011111
1111100000000000000000000000000000000000000000000000000000000000000000
0000111111
1111111000000000000000000000000000000000000000000000000000000000000000
0011111111
1111111110000000000000000000000000000000000000000000000000000000000000
1111111111
1111111111110100001000010000100001000100010010010010000000000000101111
1111111111
1111111111111111111111111111111111111111111111111111111111111111111111
1111111111
